<svg width="40" height="40" viewBox="0 0 40 40" fill="none" xmlns="http://www.w3.org/2000/svg">
<path d="M29.9366 21.2508V18.7508H35.9624V21.2508H29.9366ZM31.8403 32.4688L27.0199 28.8533L28.5391 26.86L33.3595 30.475L31.8403 32.4688ZM28.4749 13.0779L26.9557 11.0842L31.7761 7.46875L33.2957 9.4625L28.4749 13.0779ZM8.75073 30.8021V24.2958H7.05198C6.22087 24.2958 5.51101 24.0014 4.9224 23.4125C4.33351 22.8239 4.03906 22.114 4.03906 21.2829V18.7188C4.03906 17.8876 4.33351 17.1778 4.9224 16.5892C5.51101 16.0003 6.22087 15.7058 7.05198 15.7058H13.4945L20.9624 11.2508V28.7508L13.4945 24.2958H11.2507V30.8021H8.75073ZM18.4624 24.3088V15.6929L14.1866 18.2058H7.05198C6.92392 18.2058 6.80642 18.2593 6.69948 18.3663C6.59254 18.4732 6.53906 18.5907 6.53906 18.7188V21.2829C6.53906 21.411 6.59254 21.5285 6.69948 21.6354C6.80642 21.7424 6.92392 21.7958 7.05198 21.7958H14.1866L18.4624 24.3088ZM23.2699 25.1996V14.8021C23.9238 15.394 24.4505 16.1397 24.8499 17.0392C25.2496 17.9389 25.4495 18.9261 25.4495 20.0008C25.4495 21.0756 25.2496 22.0628 24.8499 22.9625C24.4505 23.8619 23.9238 24.6076 23.2699 25.1996Z" fill="black"/>
</svg>
