<svg width="40" height="40" viewBox="0 0 40 40" fill="none" xmlns="http://www.w3.org/2000/svg">
<path d="M17.5443 20.8333C16.9207 20.8333 16.4084 20.5978 16.0076 20.1267C15.6068 19.6556 15.4598 19.1058 15.5668 18.4775L15.9868 15.8942C16.1662 14.9028 16.6352 14.0893 17.3939 13.4538C18.1522 12.8179 19.023 12.5 20.0064 12.5C21.0125 12.5 21.8947 12.8179 22.653 13.4538C23.4116 14.0893 23.8807 14.9028 24.0601 15.8942L24.4801 18.4775C24.587 19.1058 24.4401 19.6556 24.0393 20.1267C23.6384 20.5978 23.1262 20.8333 22.5026 20.8333H17.5443ZM18.1276 18.3333H21.9193L21.5859 16.2917C21.5304 15.9028 21.3498 15.5903 21.0443 15.3542C20.7387 15.1181 20.3915 15 20.0026 15C19.6137 15 19.2734 15.1181 18.9818 15.3542C18.6901 15.5903 18.5165 15.9028 18.4609 16.2917L18.1276 18.3333ZM5.71594 22.2179C5.17205 22.2457 4.70108 22.1403 4.30302 21.9017C3.90497 21.6631 3.64566 21.2931 3.5251 20.7917C3.46955 20.5739 3.4583 20.3586 3.49135 20.1458C3.52441 19.9333 3.58594 19.7301 3.67594 19.5363C3.67594 19.5607 3.66205 19.5124 3.63427 19.3913C3.58927 19.3357 3.47163 19.0504 3.28135 18.5354C3.23663 18.2449 3.2733 17.9703 3.39135 17.7117C3.50941 17.4531 3.66302 17.2297 3.85219 17.0417C3.86274 17.0417 3.8851 17.0193 3.91927 16.9746C3.9676 16.5235 4.15441 16.1436 4.47969 15.835C4.80497 15.5264 5.2026 15.3721 5.6726 15.3721C5.72371 15.3721 5.95024 15.4169 6.35219 15.5067L6.46094 15.4808C6.57844 15.3581 6.73122 15.266 6.91927 15.2046C7.10733 15.1432 7.30719 15.1125 7.51885 15.1125C7.78219 15.1125 8.0158 15.1531 8.21969 15.2342C8.4233 15.3153 8.58455 15.4437 8.70344 15.6196C8.72705 15.6196 8.74483 15.6258 8.75677 15.6383C8.76871 15.6508 8.78649 15.6571 8.8101 15.6571C9.1351 15.6849 9.42399 15.7872 9.67677 15.9642C9.92955 16.1411 10.1161 16.3828 10.2364 16.6892C10.2814 16.8622 10.2995 17.0231 10.2909 17.1717C10.2823 17.32 10.2502 17.4668 10.1947 17.6121C10.1947 17.6293 10.2086 17.6796 10.2364 17.7629C10.4097 17.936 10.5412 18.1192 10.6309 18.3125C10.7207 18.5058 10.7655 18.7115 10.7655 18.9296C10.7655 19.0087 10.6982 19.2576 10.5634 19.6763C10.5465 19.7104 10.5465 19.7607 10.5634 19.8271C10.5743 19.859 10.5968 20.0492 10.6309 20.3975C10.6309 20.8972 10.422 21.3256 10.0043 21.6825C9.58677 22.0394 9.07983 22.2179 8.48344 22.2179H5.71594ZM32.9422 22.3079C32.1597 22.3079 31.4875 22.0279 30.9255 21.4679C30.3636 20.9079 30.0826 20.2347 30.0826 19.4483C30.0826 19.1622 30.1241 18.8951 30.2072 18.6471C30.29 18.3988 30.4023 18.1564 30.5443 17.92L29.543 17.0363C29.3047 16.8476 29.2629 16.6107 29.4176 16.3254C29.5726 16.0401 29.793 15.8975 30.0789 15.8975H32.9384C33.7248 15.8975 34.3964 16.1762 34.953 16.7337C35.5094 17.291 35.7876 17.961 35.7876 18.7438V19.4554C35.7876 20.2329 35.509 20.9028 34.9518 21.465C34.3945 22.0269 33.7247 22.3079 32.9422 22.3079ZM0.835938 29.6475V27.6154C0.835938 26.4893 1.41691 25.5743 2.57885 24.8704C3.7408 24.1663 5.24871 23.8142 7.1026 23.8142C7.44205 23.8142 7.76774 23.8238 8.07969 23.8429C8.39163 23.8621 8.68969 23.8994 8.97385 23.955C8.65969 24.4467 8.42135 24.9697 8.25885 25.5242C8.09663 26.0789 8.01552 26.6697 8.01552 27.2967V29.6475H0.835938ZM10.8359 29.6475V27.3558C10.8359 25.7639 11.683 24.4872 13.3772 23.5258C15.0714 22.5642 17.2814 22.0833 20.0072 22.0833C22.7583 22.0833 24.9732 22.5642 26.6518 23.5258C28.3301 24.4872 29.1693 25.7639 29.1693 27.3558V29.6475H10.8359ZM32.9193 23.8142C34.7943 23.8142 36.3047 24.1663 37.4505 24.8704C38.5964 25.5743 39.1693 26.4893 39.1693 27.6154V29.6475H31.9897V27.2967C31.9897 26.6697 31.9155 26.0789 31.7672 25.5242C31.6186 24.9697 31.3958 24.4467 31.0989 23.955C31.383 23.8994 31.6777 23.8621 31.983 23.8429C32.2886 23.8238 32.6007 23.8142 32.9193 23.8142ZM20.0005 24.5833C18.2689 24.5833 16.7808 24.8131 15.5364 25.2725C14.2916 25.7319 13.6009 26.2982 13.4643 26.9713V27.1475H26.5668V26.9713C26.4129 26.2982 25.7205 25.7319 24.4897 25.2725C23.2591 24.8131 21.7627 24.5833 20.0005 24.5833Z" fill="#E84526"/>
</svg>
