<svg width="40" height="40" viewBox="0 0 40 40" fill="none" xmlns="http://www.w3.org/2000/svg">
<path d="M22.3568 17.3548C23.0095 16.702 23.3359 15.9173 23.3359 15.0007C23.3359 14.084 23.0095 13.2993 22.3568 12.6465C21.704 11.9937 20.9193 11.6673 20.0026 11.6673C19.0859 11.6673 18.3012 11.9937 17.6484 12.6465C16.9957 13.2993 16.6693 14.084 16.6693 15.0007C16.6693 15.9173 16.9957 16.702 17.6484 17.3548C18.3012 18.0076 19.0859 18.334 20.0026 18.334C20.9193 18.334 21.704 18.0076 22.3568 17.3548ZM12.823 34.1673V31.6673H18.7526V25.9557C17.3382 25.6715 16.0882 25.0765 15.0026 24.1707C13.917 23.2645 13.1457 22.1352 12.6884 20.7827C10.7654 20.5541 9.1426 19.7379 7.8201 18.334C6.49733 16.9301 5.83594 15.2634 5.83594 13.334V11.6673C5.83594 10.9857 6.08219 10.3986 6.57469 9.90607C7.06719 9.41357 7.65427 9.16732 8.33594 9.16732H12.2143V5.83398H27.7909V9.16732H31.6693C32.3509 9.16732 32.938 9.41357 33.4305 9.90607C33.923 10.3986 34.1693 10.9857 34.1693 11.6673V13.334C34.1693 15.2634 33.5079 16.9301 32.1851 18.334C30.8626 19.7379 29.2398 20.5541 27.3168 20.7827C26.8595 22.1352 26.0882 23.2645 25.0026 24.1707C23.917 25.0765 22.667 25.6715 21.2526 25.9557V31.6673H27.1822V34.1673H12.823ZM12.2143 18.0969V11.6673H8.33594V13.334C8.33594 14.4965 8.70024 15.5173 9.42885 16.3965C10.1575 17.2757 11.0859 17.8425 12.2143 18.0969ZM23.7284 22.0277C24.7487 21.0075 25.2589 19.7655 25.2589 18.3019V8.33398H14.7464V18.3019C14.7464 19.7655 15.2565 21.0075 16.2768 22.0277C17.297 23.0483 18.539 23.5586 20.0026 23.5586C21.4662 23.5586 22.7082 23.0483 23.7284 22.0277ZM27.7909 18.0969C28.9193 17.8425 29.8477 17.2757 30.5764 16.3965C31.305 15.5173 31.6693 14.4965 31.6693 13.334V11.6673H27.7909V18.0969Z" fill="#E84526"/>
</svg>
