<svg width="40" height="40" viewBox="0 0 40 40" fill="none" xmlns="http://www.w3.org/2000/svg">
<path d="M17.9008 24.583H22.0992L21.1571 19.3201C21.6804 19.0956 22.1018 18.7437 22.4212 18.2642C22.7407 17.7845 22.9004 17.2519 22.9004 16.6663C22.9004 15.8671 22.6168 15.1839 22.0496 14.6167C21.4824 14.0495 20.7992 13.7659 20 13.7659C19.2008 13.7659 18.5176 14.0495 17.9504 14.6167C17.3832 15.1839 17.0996 15.8671 17.0996 16.6663C17.0996 17.2519 17.2593 17.7845 17.5788 18.2642C17.8982 18.7437 18.3196 19.0956 18.8429 19.3201L17.9008 24.583ZM20 35.8009C16.3953 34.8178 13.4108 32.696 11.0467 29.4355C8.68222 26.1749 7.5 22.5296 7.5 18.4996V8.91005L20 4.23047L32.5 8.91005V18.4996C32.5 22.5296 31.3178 26.1749 28.9533 29.4355C26.5892 32.696 23.6047 34.8178 20 35.8009ZM20 33.1663C22.8889 32.2496 25.2778 30.4163 27.1667 27.6663C29.0556 24.9163 30 21.8608 30 18.4996V10.6246L20 6.89047L10 10.6246V18.4996C10 21.8608 10.9444 24.9163 12.8333 27.6663C14.7222 30.4163 17.1111 32.2496 20 33.1663Z" fill="#E84526"/>
</svg>
