<svg width="24" height="24" viewBox="0 0 24 24" fill="none" xmlns="http://www.w3.org/2000/svg">
<path d="M22.595 24L24 22.595L13.8257 12.4L19.6537 10.964L13.5667 7.18467L14.0947 0L8.60267 4.636L1.96667 1.93333L4.636 8.58967L-1.90735e-06 14.0613L7.18467 13.5667L10.9847 19.6537L12.4333 13.8257L22.595 24ZM21.8077 6.53833L24 4.346L21.8077 2.154L19.6153 4.346L21.8077 6.53833ZM10.1667 14.5797L8.259 11.4717L4.60766 11.7437L6.96667 8.941L5.59467 5.56133L8.97433 6.93333L11.777 4.59467L11.505 8.22567L14.6 10.154L11.0617 11.0283L10.1667 14.5797ZM4.346 24L6.53833 21.8077L4.346 19.6153L2.154 21.8077L4.346 24Z" fill="white"/>
</svg>
