<svg width="40" height="40" viewBox="0 0 40 40" fill="none" xmlns="http://www.w3.org/2000/svg">
<path d="M18.25 25.3392L27.0896 16.4996L25.3075 14.7176L18.25 21.7755L14.7179 18.2434L12.9358 20.0255L18.25 25.3392ZM20 35.8009C16.3953 34.8178 13.4108 32.696 11.0467 29.4355C8.68222 26.1749 7.5 22.5296 7.5 18.4996V8.91005L20 4.23047L32.5 8.91005V18.4996C32.5 22.5296 31.3178 26.1749 28.9533 29.4355C26.5892 32.696 23.6047 34.8178 20 35.8009ZM20 33.1663C22.8889 32.2496 25.2778 30.4163 27.1667 27.6663C29.0556 24.9163 30 21.8608 30 18.4996V10.6246L20 6.89047L10 10.6246V18.4996C10 21.8608 10.9444 24.9163 12.8333 27.6663C14.7222 30.4163 17.1111 32.2496 20 33.1663Z" fill="#E84526"/>
</svg>
